<svg width="86" height="15" viewBox="0 0 86 15" fill="none" xmlns="http://www.w3.org/2000/svg">
<path d="M14.1038 7.5C14.1038 11.3787 11.0459 14.5 7.30189 14.5C3.55784 14.5 0.5 11.3787 0.5 7.5C0.5 3.6213 3.55784 0.5 7.30189 0.5C11.0459 0.5 14.1038 3.6213 14.1038 7.5Z" fill="#EB4746" stroke="#2038BE"/>
<path d="M31.9528 7.5C31.9528 11.3787 28.895 14.5 25.1509 14.5C21.4069 14.5 18.3491 11.3787 18.3491 7.5C18.3491 3.6213 21.4069 0.5 25.1509 0.5C28.895 0.5 31.9528 3.6213 31.9528 7.5Z" fill="white" stroke="#2038BE"/>
<path d="M49.8019 7.5C49.8019 11.3787 46.7441 14.5 43 14.5C39.256 14.5 36.1981 11.3787 36.1981 7.5C36.1981 3.6213 39.256 0.5 43 0.5C46.7441 0.5 49.8019 3.6213 49.8019 7.5Z" fill="white" stroke="#2038BE"/>
<path d="M67.651 7.5C67.651 11.3787 64.5931 14.5 60.8491 14.5C57.105 14.5 54.0472 11.3787 54.0472 7.5C54.0472 3.6213 57.105 0.5 60.8491 0.5C64.5931 0.5 67.651 3.6213 67.651 7.5Z" fill="white" stroke="#2038BE"/>
<path d="M85.5 7.5C85.5 11.3787 82.4422 14.5 78.6981 14.5C74.9541 14.5 71.8962 11.3787 71.8962 7.5C71.8962 3.6213 74.9541 0.5 78.6981 0.5C82.4422 0.5 85.5 3.6213 85.5 7.5Z" fill="white" stroke="#2038BE"/>
</svg>
